<mxfile>
    <diagram id="uJ6fWP7Fu3Zx66Wm29DG" name="ページ1">
        <mxGraphModel dx="1444" dy="798" grid="1" gridSize="10" guides="1" tooltips="1" connect="1" arrows="1" fold="1" page="1" pageScale="1" pageWidth="827" pageHeight="1169" math="0" shadow="0">
            <root>
                <mxCell id="0"/>
                <mxCell id="1" parent="0"/>
                <mxCell id="45" value="" style="endArrow=classic;html=1;exitX=0.5;exitY=1;exitDx=0;exitDy=0;entryX=0.5;entryY=0;entryDx=0;entryDy=0;" edge="1" parent="1" source="2" target="29">
                    <mxGeometry width="50" height="50" relative="1" as="geometry">
                        <mxPoint x="-20" y="480" as="sourcePoint"/>
                        <mxPoint x="30" y="430" as="targetPoint"/>
                    </mxGeometry>
                </mxCell>
                <mxCell id="41" value="" style="endArrow=classic;html=1;exitX=1;exitY=0.5;exitDx=0;exitDy=0;entryX=0.5;entryY=0;entryDx=0;entryDy=0;" parent="1" source="31" target="33" edge="1">
                    <mxGeometry width="50" height="50" relative="1" as="geometry">
                        <mxPoint x="890" y="190" as="sourcePoint"/>
                        <mxPoint x="940" y="140" as="targetPoint"/>
                        <Array as="points">
                            <mxPoint x="870" y="260"/>
                        </Array>
                    </mxGeometry>
                </mxCell>
                <mxCell id="40" value="" style="endArrow=classic;html=1;exitX=0.5;exitY=1;exitDx=0;exitDy=0;entryX=0.5;entryY=0;entryDx=0;entryDy=0;" parent="1" source="26" target="44" edge="1">
                    <mxGeometry width="50" height="50" relative="1" as="geometry">
                        <mxPoint x="810" y="130" as="sourcePoint"/>
                        <mxPoint x="860" y="80" as="targetPoint"/>
                    </mxGeometry>
                </mxCell>
                <mxCell id="21" value="" style="endArrow=classic;html=1;" parent="1" edge="1">
                    <mxGeometry width="50" height="50" relative="1" as="geometry">
                        <mxPoint x="390" y="690" as="sourcePoint"/>
                        <mxPoint x="320" y="800" as="targetPoint"/>
                        <Array as="points">
                            <mxPoint x="460" y="690"/>
                            <mxPoint x="460" y="800"/>
                        </Array>
                    </mxGeometry>
                </mxCell>
                <mxCell id="20" value="" style="endArrow=classic;html=1;exitX=0.5;exitY=1;exitDx=0;exitDy=0;entryX=0.5;entryY=0;entryDx=0;entryDy=0;" parent="1" source="4" target="19" edge="1">
                    <mxGeometry width="50" height="50" relative="1" as="geometry">
                        <mxPoint x="120" y="1410" as="sourcePoint"/>
                        <mxPoint x="170" y="1360" as="targetPoint"/>
                    </mxGeometry>
                </mxCell>
                <mxCell id="2" value="start" style="rounded=1;whiteSpace=wrap;html=1;" parent="1" vertex="1">
                    <mxGeometry y="50" width="120" height="60" as="geometry"/>
                </mxCell>
                <mxCell id="4" value="puttable(interval, data, n)" style="rounded=1;whiteSpace=wrap;html=1;" parent="1" vertex="1">
                    <mxGeometry x="260" y="50" width="120" height="60" as="geometry"/>
                </mxCell>
                <mxCell id="5" value="for start in range(len(data))" style="shape=loopLimit;whiteSpace=wrap;html=1;" parent="1" vertex="1">
                    <mxGeometry x="255" y="130" width="130" height="80" as="geometry"/>
                </mxCell>
                <mxCell id="6" value="pos = start&lt;br&gt;over = 0" style="rounded=0;whiteSpace=wrap;html=1;" parent="1" vertex="1">
                    <mxGeometry x="260" y="230" width="120" height="60" as="geometry"/>
                </mxCell>
                <mxCell id="7" value="for _ in range(1, n+1)" style="shape=loopLimit;whiteSpace=wrap;html=1;" parent="1" vertex="1">
                    <mxGeometry x="265" y="310" width="110" height="70" as="geometry"/>
                </mxCell>
                <mxCell id="8" value="d = 0" style="rounded=0;whiteSpace=wrap;html=1;" parent="1" vertex="1">
                    <mxGeometry x="260" y="390" width="120" height="60" as="geometry"/>
                </mxCell>
                <mxCell id="9" value="while d &amp;lt; interval" style="shape=loopLimit;whiteSpace=wrap;html=1;" parent="1" vertex="1">
                    <mxGeometry x="255" y="470" width="130" height="80" as="geometry"/>
                </mxCell>
                <mxCell id="10" value="d += data[pos]&lt;br&gt;pos = (pos+1)%len(data)" style="rounded=0;whiteSpace=wrap;html=1;" parent="1" vertex="1">
                    <mxGeometry x="260" y="570" width="120" height="60" as="geometry"/>
                </mxCell>
                <mxCell id="11" value="pos == start" style="rhombus;whiteSpace=wrap;html=1;" parent="1" vertex="1">
                    <mxGeometry x="252" y="650" width="136" height="90" as="geometry"/>
                </mxCell>
                <mxCell id="12" value="over += 1" style="rounded=0;whiteSpace=wrap;html=1;" parent="1" vertex="1">
                    <mxGeometry x="400" y="720" width="120" height="60" as="geometry"/>
                </mxCell>
                <mxCell id="13" value="endwhile" style="shape=loopLimit;whiteSpace=wrap;html=1;direction=west;" parent="1" vertex="1">
                    <mxGeometry x="255" y="810" width="130" height="60" as="geometry"/>
                </mxCell>
                <mxCell id="14" value="endfor" style="shape=loopLimit;whiteSpace=wrap;html=1;direction=west;" parent="1" vertex="1">
                    <mxGeometry x="260" y="900" width="120" height="70" as="geometry"/>
                </mxCell>
                <mxCell id="15" value="if over == 0 or (over == 1 and pos == start)" style="rhombus;whiteSpace=wrap;html=1;" parent="1" vertex="1">
                    <mxGeometry x="240" y="990" width="160" height="90" as="geometry"/>
                </mxCell>
                <mxCell id="17" value="return True" style="rounded=1;whiteSpace=wrap;html=1;" parent="1" vertex="1">
                    <mxGeometry x="440" y="1005" width="120" height="60" as="geometry"/>
                </mxCell>
                <mxCell id="18" value="endfor" style="shape=loopLimit;whiteSpace=wrap;html=1;direction=west;" parent="1" vertex="1">
                    <mxGeometry x="255" y="1110" width="130" height="80" as="geometry"/>
                </mxCell>
                <mxCell id="19" value="return False" style="rounded=1;whiteSpace=wrap;html=1;" parent="1" vertex="1">
                    <mxGeometry x="260" y="1230" width="120" height="60" as="geometry"/>
                </mxCell>
                <mxCell id="22" value="" style="endArrow=classic;html=1;entryX=0.008;entryY=0.588;entryDx=0;entryDy=0;entryPerimeter=0;" parent="1" target="9" edge="1">
                    <mxGeometry width="50" height="50" relative="1" as="geometry">
                        <mxPoint x="320" y="800" as="sourcePoint"/>
                        <mxPoint x="130" y="750" as="targetPoint"/>
                        <Array as="points">
                            <mxPoint x="200" y="800"/>
                            <mxPoint x="200" y="517"/>
                        </Array>
                    </mxGeometry>
                </mxCell>
                <mxCell id="23" value="" style="endArrow=classic;html=1;entryX=0;entryY=0.657;entryDx=0;entryDy=0;entryPerimeter=0;" parent="1" target="7" edge="1">
                    <mxGeometry width="50" height="50" relative="1" as="geometry">
                        <mxPoint x="320" y="890" as="sourcePoint"/>
                        <mxPoint x="140" y="630" as="targetPoint"/>
                        <Array as="points">
                            <mxPoint x="140" y="890"/>
                            <mxPoint x="140" y="356"/>
                            <mxPoint x="200" y="356"/>
                        </Array>
                    </mxGeometry>
                </mxCell>
                <mxCell id="24" value="" style="endArrow=classic;html=1;exitX=0.95;exitY=0.533;exitDx=0;exitDy=0;exitPerimeter=0;" parent="1" source="15" edge="1">
                    <mxGeometry width="50" height="50" relative="1" as="geometry">
                        <mxPoint x="510" y="1010" as="sourcePoint"/>
                        <mxPoint x="440" y="1038" as="targetPoint"/>
                    </mxGeometry>
                </mxCell>
                <mxCell id="25" value="" style="endArrow=classic;html=1;entryX=1.031;entryY=0.588;entryDx=0;entryDy=0;entryPerimeter=0;" parent="1" target="5" edge="1">
                    <mxGeometry width="50" height="50" relative="1" as="geometry">
                        <mxPoint x="320" y="1100" as="sourcePoint"/>
                        <mxPoint x="714" y="780" as="targetPoint"/>
                        <Array as="points">
                            <mxPoint x="590" y="1100"/>
                            <mxPoint x="590" y="177"/>
                        </Array>
                    </mxGeometry>
                </mxCell>
                <mxCell id="26" value="main(data)" style="rounded=1;whiteSpace=wrap;html=1;" parent="1" vertex="1">
                    <mxGeometry x="650" y="60" width="120" height="60" as="geometry"/>
                </mxCell>
                <mxCell id="27" value="d = d0, d1, d2などいずれか" style="rounded=0;whiteSpace=wrap;html=1;" parent="1" vertex="1">
                    <mxGeometry y="130" width="120" height="60" as="geometry"/>
                </mxCell>
                <mxCell id="28" value="main(d)" style="rounded=0;whiteSpace=wrap;html=1;" parent="1" vertex="1">
                    <mxGeometry y="210" width="120" height="60" as="geometry"/>
                </mxCell>
                <mxCell id="29" value="end" style="rounded=1;whiteSpace=wrap;html=1;" parent="1" vertex="1">
                    <mxGeometry y="290" width="120" height="60" as="geometry"/>
                </mxCell>
                <mxCell id="30" value="n = int(input())" style="rounded=0;whiteSpace=wrap;html=1;" parent="1" vertex="1">
                    <mxGeometry x="650" y="140" width="120" height="60" as="geometry"/>
                </mxCell>
                <mxCell id="31" value="if n &amp;gt; len(data)" style="rhombus;whiteSpace=wrap;html=1;" parent="1" vertex="1">
                    <mxGeometry x="640" y="220" width="140" height="80" as="geometry"/>
                </mxCell>
                <mxCell id="32" value="print('nの値が不正です')" style="rounded=0;whiteSpace=wrap;html=1;" parent="1" vertex="1">
                    <mxGeometry x="810" y="230" width="120" height="60" as="geometry"/>
                </mxCell>
                <mxCell id="33" value="end" style="rounded=1;whiteSpace=wrap;html=1;" parent="1" vertex="1">
                    <mxGeometry x="810" y="310" width="120" height="60" as="geometry"/>
                </mxCell>
                <mxCell id="34" value="total&amp;nbsp; sum(data" style="rounded=0;whiteSpace=wrap;html=1;" parent="1" vertex="1">
                    <mxGeometry x="650" y="330" width="120" height="60" as="geometry"/>
                </mxCell>
                <mxCell id="35" value="for i in range(1, total + 1)" style="shape=loopLimit;whiteSpace=wrap;html=1;" parent="1" vertex="1">
                    <mxGeometry x="650" y="410" width="120" height="80" as="geometry"/>
                </mxCell>
                <mxCell id="36" value="if not puttable(i, data, n)" style="rhombus;whiteSpace=wrap;html=1;" parent="1" vertex="1">
                    <mxGeometry x="645" y="520" width="130" height="80" as="geometry"/>
                </mxCell>
                <mxCell id="37" value="print(&quot;N = {n}の最小値は{i-1})" style="rounded=0;whiteSpace=wrap;html=1;" parent="1" vertex="1">
                    <mxGeometry x="650" y="620" width="120" height="60" as="geometry"/>
                </mxCell>
                <mxCell id="38" value="end" style="rounded=1;whiteSpace=wrap;html=1;" parent="1" vertex="1">
                    <mxGeometry x="827" y="620" width="120" height="60" as="geometry"/>
                </mxCell>
                <mxCell id="39" value="endfor" style="shape=loopLimit;whiteSpace=wrap;html=1;direction=west;" parent="1" vertex="1">
                    <mxGeometry x="647.5" y="730" width="125" height="80" as="geometry"/>
                </mxCell>
                <mxCell id="42" value="" style="endArrow=classic;html=1;exitX=1;exitY=0.5;exitDx=0;exitDy=0;entryX=0.5;entryY=0;entryDx=0;entryDy=0;" parent="1" source="36" target="38" edge="1">
                    <mxGeometry width="50" height="50" relative="1" as="geometry">
                        <mxPoint x="880" y="560" as="sourcePoint"/>
                        <mxPoint x="930" y="510" as="targetPoint"/>
                        <Array as="points">
                            <mxPoint x="887" y="560"/>
                        </Array>
                    </mxGeometry>
                </mxCell>
                <mxCell id="43" value="" style="endArrow=classic;html=1;entryX=0;entryY=0.5;entryDx=0;entryDy=0;" parent="1" target="35" edge="1">
                    <mxGeometry width="50" height="50" relative="1" as="geometry">
                        <mxPoint x="710" y="710" as="sourcePoint"/>
                        <mxPoint x="530" y="590" as="targetPoint"/>
                        <Array as="points">
                            <mxPoint x="630" y="710"/>
                            <mxPoint x="630" y="450"/>
                        </Array>
                    </mxGeometry>
                </mxCell>
                <mxCell id="44" value="end" style="rounded=1;whiteSpace=wrap;html=1;" parent="1" vertex="1">
                    <mxGeometry x="650" y="840" width="120" height="60" as="geometry"/>
                </mxCell>
            </root>
        </mxGraphModel>
    </diagram>
</mxfile>
